<svg xmlns="http://www.w3.org/2000/svg" xmlns:xlink="http://www.w3.org/1999/xlink" width="700pt" height="700pt" version="1.1" viewBox="0 0 700 700">
 <defs fill="#ffffff">
  <symbol id="t" overflow="visible" fill="#ffffff">
   <path d="m9.9688-0.59375c-0.51172 0.26172-1.0469 0.46094-1.6094 0.59375-0.55469 0.13281-1.1328 0.20312-1.7344 0.20312-1.8125 0-3.25-0.50391-4.3125-1.5156-1.0547-1.0078-1.5781-2.3789-1.5781-4.1094 0-1.7266 0.52344-3.0977 1.5781-4.1094 1.0625-1.0078 2.5-1.5156 4.3125-1.5156 0.60156 0 1.1797 0.070313 1.7344 0.20312 0.5625 0.13672 1.0977 0.33594 1.6094 0.59375v2.25c-0.51172-0.35156-1.0234-0.60938-1.5312-0.76562-0.5-0.16406-1.0312-0.25-1.5938-0.25-1 0-1.7891 0.32031-2.3594 0.95312-0.5625 0.63672-0.84375 1.5156-0.84375 2.6406s0.28125 2.0117 0.84375 2.6562c0.57031 0.63672 1.3594 0.95312 2.3594 0.95312 0.5625 0 1.0938-0.082031 1.5938-0.25 0.50781-0.16406 1.0195-0.42578 1.5312-0.78125z" fill="#ffffff"/>
  </symbol>
  <symbol id="b" overflow="visible" fill="#ffffff">
   <path d="m7.2969-5.9219c-0.23047-0.10156-0.46094-0.17969-0.6875-0.23438-0.21875-0.050781-0.44531-0.078125-0.67188-0.078125-0.66797 0-1.1836 0.21484-1.5469 0.64062-0.35547 0.42969-0.53125 1.043-0.53125 1.8438v3.75h-2.6094v-8.1406h2.6094v1.3281c0.33203-0.53125 0.71094-0.91406 1.1406-1.1562 0.4375-0.25 0.95703-0.375 1.5625-0.375 0.09375 0 0.1875 0.007812 0.28125 0.015625 0.10156 0.011719 0.25391 0.027344 0.45312 0.046875z" fill="#ffffff"/>
  </symbol>
  <symbol id="a" overflow="visible" fill="#ffffff">
   <path d="m9.375-4.0938v0.73438h-6.0781c0.0625 0.61719 0.28125 1.0781 0.65625 1.3906 0.375 0.30469 0.90625 0.45312 1.5938 0.45312 0.53906 0 1.0977-0.078125 1.6719-0.23438 0.57031-0.16406 1.1641-0.41406 1.7812-0.75v2c-0.61719 0.24219-1.2344 0.41797-1.8594 0.53125-0.61719 0.11328-1.2305 0.17188-1.8438 0.17188-1.4688 0-2.6172-0.36719-3.4375-1.1094-0.8125-0.75-1.2188-1.8008-1.2188-3.1562 0-1.332 0.39844-2.3789 1.2031-3.1406 0.80078-0.75781 1.9062-1.1406 3.3125-1.1406 1.2812 0 2.3008 0.38672 3.0625 1.1562 0.76953 0.77344 1.1562 1.8047 1.1562 3.0938zm-2.6719-0.85938c0-0.5-0.14844-0.89844-0.4375-1.2031-0.28125-0.30078-0.65625-0.45312-1.125-0.45312-0.5 0-0.91406 0.14062-1.2344 0.42188-0.3125 0.28125-0.50781 0.69531-0.57812 1.2344z" fill="#ffffff"/>
  </symbol>
  <symbol id="e" overflow="visible" fill="#ffffff">
   <path d="m4.9062-3.6719c-0.54297 0-0.95312 0.09375-1.2344 0.28125-0.27344 0.1875-0.40625 0.46094-0.40625 0.8125 0 0.33594 0.10938 0.59375 0.32812 0.78125s0.52344 0.28125 0.92188 0.28125c0.48828 0 0.89844-0.17578 1.2344-0.53125 0.33203-0.35156 0.5-0.78906 0.5-1.3125v-0.3125zm3.9688-0.96875v4.6406h-2.625v-1.2031c-0.34375 0.49219-0.73438 0.85156-1.1719 1.0781-0.4375 0.21875-0.96875 0.32812-1.5938 0.32812-0.84375 0-1.5312-0.24219-2.0625-0.73438-0.52344-0.48828-0.78125-1.125-0.78125-1.9062 0-0.95703 0.32812-1.6602 0.98438-2.1094 0.65625-0.44531 1.6875-0.67188 3.0938-0.67188h1.5312v-0.20312c0-0.40625-0.16406-0.70312-0.48438-0.89062-0.32422-0.19531-0.82812-0.29688-1.5156-0.29688-0.5625 0-1.0859 0.058594-1.5625 0.17188-0.48047 0.10547-0.92188 0.27344-1.3281 0.5v-1.9844c0.55078-0.13281 1.1094-0.23828 1.6719-0.3125 0.5625-0.070313 1.125-0.10938 1.6875-0.10938 1.4688 0 2.5234 0.29297 3.1719 0.875 0.65625 0.57422 0.98438 1.5156 0.98438 2.8281z" fill="#ffffff"/>
  </symbol>
  <symbol id="d" overflow="visible" fill="#ffffff">
   <path d="m4.0938-10.453v2.3125h2.6875v1.8594h-2.6875v3.4531c0 0.375 0.070312 0.63281 0.21875 0.76562 0.15625 0.13672 0.45703 0.20312 0.90625 0.20312h1.3281v1.8594h-2.2344c-1.0234 0-1.75-0.21094-2.1875-0.64062-0.42969-0.42578-0.64062-1.1562-0.64062-2.1875v-3.4531h-1.2812v-1.8594h1.2812v-2.3125z" fill="#ffffff"/>
  </symbol>
  <symbol id="j" overflow="visible" fill="#ffffff">
   <path d="m6.7969-6.9531v-4.3594h2.6094v11.312h-2.6094v-1.1719c-0.36719 0.48047-0.76562 0.82812-1.2031 1.0469-0.42969 0.21875-0.92188 0.32812-1.4844 0.32812-1 0-1.8242-0.39453-2.4688-1.1875-0.64844-0.80078-0.96875-1.8281-0.96875-3.0781 0-1.2578 0.32031-2.2852 0.96875-3.0781 0.64453-0.80078 1.4688-1.2031 2.4688-1.2031 0.5625 0 1.0547 0.11719 1.4844 0.34375 0.4375 0.23047 0.83594 0.57812 1.2031 1.0469zm-1.7188 5.2812c0.55078 0 0.97266-0.20312 1.2656-0.60938 0.30078-0.41406 0.45312-1.0078 0.45312-1.7812 0-0.78125-0.15234-1.375-0.45312-1.7812-0.29297-0.40625-0.71484-0.60938-1.2656-0.60938-0.55469 0-0.98047 0.20312-1.2812 0.60938-0.29297 0.40625-0.4375 1-0.4375 1.7812 0 0.77344 0.14453 1.3672 0.4375 1.7812 0.30078 0.40625 0.72656 0.60938 1.2812 0.60938z" fill="#ffffff"/>
  </symbol>
  <symbol id="i" overflow="visible" fill="#ffffff">
   <path d="m5.5781-1.6719c0.5625 0 0.98828-0.20312 1.2812-0.60938 0.28906-0.41406 0.4375-1.0078 0.4375-1.7812 0-0.78125-0.14844-1.375-0.4375-1.7812-0.29297-0.40625-0.71875-0.60938-1.2812-0.60938-0.55469 0-0.98047 0.21094-1.2812 0.625-0.29297 0.40625-0.4375 0.99609-0.4375 1.7656 0 0.77344 0.14453 1.3672 0.4375 1.7812 0.30078 0.40625 0.72656 0.60938 1.2812 0.60938zm-1.7188-5.2812c0.35156-0.46875 0.75-0.81641 1.1875-1.0469 0.4375-0.22656 0.9375-0.34375 1.5-0.34375 1.0078 0 1.832 0.40234 2.4688 1.2031 0.64453 0.79297 0.96875 1.8203 0.96875 3.0781 0 1.25-0.32422 2.2773-0.96875 3.0781-0.63672 0.79297-1.4609 1.1875-2.4688 1.1875-0.5625 0-1.0625-0.10938-1.5-0.32812-0.4375-0.22656-0.83594-0.57812-1.1875-1.0469v1.1719h-2.6094v-11.312h2.6094z" fill="#ffffff"/>
  </symbol>
  <symbol id="h" overflow="visible" fill="#ffffff">
   <path d="m0.1875-8.1406h2.5938l2.1875 5.5156 1.8594-5.5156h2.6094l-3.4219 8.9062c-0.34375 0.90625-0.74609 1.5391-1.2031 1.9062-0.46094 0.36328-1.0625 0.54688-1.8125 0.54688h-1.5156v-1.7188h0.82812c0.4375 0 0.75391-0.074219 0.95312-0.21875 0.19531-0.13672 0.35156-0.38672 0.46875-0.75l0.078125-0.21875z" fill="#ffffff"/>
  </symbol>
  <symbol id="g" overflow="visible" fill="#ffffff">
   <path d="m1.25-11.312h2.6094v6.1562l2.9844-2.9844h3.0312l-3.9844 3.7344 4.2969 4.4062h-3.1562l-3.1719-3.3906v3.3906h-2.6094z" fill="#ffffff"/>
  </symbol>
  <symbol id="f" overflow="visible" fill="#ffffff">
   <path d="m8.7969-6.7969c0.33203-0.5 0.72266-0.87891 1.1719-1.1406 0.45703-0.26953 0.95703-0.40625 1.5-0.40625 0.9375 0 1.6484 0.29297 2.1406 0.875 0.48828 0.57422 0.73438 1.4141 0.73438 2.5156v4.9531h-2.625v-4.25c0.007812-0.0625 0.015625-0.125 0.015625-0.1875v-0.29688c0-0.57031-0.089844-0.98828-0.26562-1.25-0.16797-0.25781-0.4375-0.39062-0.8125-0.39062-0.49219 0-0.87109 0.20312-1.1406 0.60938-0.27344 0.40625-0.41406 0.99609-0.42188 1.7656v4h-2.6094v-4.25c0-0.89453-0.078125-1.4727-0.23438-1.7344-0.15625-0.25781-0.43359-0.39062-0.82812-0.39062-0.5 0-0.88672 0.21094-1.1562 0.625-0.27344 0.40625-0.40625 0.99219-0.40625 1.75v4h-2.625v-8.1406h2.625v1.1875c0.3125-0.45703 0.67578-0.80078 1.0938-1.0312 0.41406-0.23828 0.875-0.35938 1.375-0.35938 0.5625 0 1.0547 0.13672 1.4844 0.40625 0.4375 0.27344 0.76562 0.65234 0.98438 1.1406z" fill="#ffffff"/>
  </symbol>
  <symbol id="c" overflow="visible" fill="#ffffff">
   <path d="m5.125-6.4844c-0.57422 0-1.0117 0.21094-1.3125 0.625-0.30469 0.41797-0.45312 1.0156-0.45312 1.7969s0.14844 1.3828 0.45312 1.7969c0.30078 0.40625 0.73828 0.60938 1.3125 0.60938 0.57031 0 1.0039-0.20312 1.2969-0.60938 0.30078-0.41406 0.45312-1.0156 0.45312-1.7969s-0.15234-1.3789-0.45312-1.7969c-0.29297-0.41406-0.72656-0.625-1.2969-0.625zm0-1.8594c1.4062 0 2.5 0.38281 3.2812 1.1406 0.78906 0.75 1.1875 1.7969 1.1875 3.1406 0 1.3359-0.39844 2.3828-1.1875 3.1406-0.78125 0.75-1.875 1.125-3.2812 1.125s-2.5078-0.375-3.2969-1.125c-0.79297-0.75781-1.1875-1.8047-1.1875-3.1406 0-1.3438 0.39453-2.3906 1.1875-3.1406 0.78906-0.75781 1.8906-1.1406 3.2969-1.1406z" fill="#ffffff"/>
  </symbol>
  <symbol id="s" overflow="visible" fill="#ffffff">
   <path d="m0.21875-8.1406h2.6094l2.0312 5.625 2.0156-5.625h2.6094l-3.2031 8.1406h-2.8594z" fill="#ffffff"/>
  </symbol>
  <symbol id="r" overflow="visible" fill="#ffffff">
   <path d="m6.6094-11.312v1.7031h-1.4375c-0.375 0-0.63672 0.070313-0.78125 0.20312-0.13672 0.13672-0.20312 0.37109-0.20312 0.70312v0.5625h2.2188v1.8594h-2.2188v6.2812h-2.6094v-6.2812h-1.2969v-1.8594h1.2969v-0.5625c0-0.89453 0.24219-1.5508 0.73438-1.9688 0.5-0.42578 1.2656-0.64062 2.2969-0.64062z" fill="#ffffff"/>
  </symbol>
  <symbol id="q" overflow="visible" fill="#ffffff">
   <path d="m9.4375-4.9531v4.9531h-2.625v-3.7812c0-0.70703-0.015625-1.1953-0.046875-1.4688-0.03125-0.26953-0.085937-0.46875-0.15625-0.59375-0.10547-0.16406-0.24609-0.29688-0.42188-0.39062-0.16797-0.09375-0.36719-0.14062-0.59375-0.14062-0.54297 0-0.96875 0.21094-1.2812 0.625-0.30469 0.41797-0.45312 1-0.45312 1.75v4h-2.6094v-11.312h2.6094v4.3594c0.38281-0.46875 0.79688-0.81641 1.2344-1.0469 0.44531-0.22656 0.9375-0.34375 1.4688-0.34375 0.9375 0 1.6484 0.29297 2.1406 0.875 0.48828 0.57422 0.73438 1.4141 0.73438 2.5156z" fill="#ffffff"/>
  </symbol>
  <symbol id="p" overflow="visible" fill="#ffffff">
   <path d="m1.3594-10.859h3.1406l3.9375 7.4531v-7.4531h2.6562v10.859h-3.125l-3.9531-7.4531v7.4531h-2.6562z" fill="#ffffff"/>
  </symbol>
  <symbol id="o" overflow="visible" fill="#ffffff">
   <path d="m1.1562-3.1719v-4.9688h2.625v0.8125c0 0.4375-0.007812 0.99219-0.015625 1.6562v1.3438c0 0.64844 0.015625 1.1172 0.046875 1.4062 0.039062 0.29297 0.097656 0.5 0.17188 0.625 0.11328 0.17969 0.25391 0.3125 0.42188 0.40625 0.17578 0.085937 0.375 0.125 0.59375 0.125 0.53906 0 0.96875-0.20703 1.2812-0.625 0.3125-0.41406 0.46875-0.99219 0.46875-1.7344v-4.0156h2.5938v8.1406h-2.5938v-1.1719c-0.39844 0.46875-0.8125 0.82031-1.25 1.0469-0.4375 0.21875-0.92188 0.32812-1.4531 0.32812-0.9375 0-1.6562-0.28516-2.1562-0.85938-0.49219-0.57031-0.73438-1.4102-0.73438-2.5156z" fill="#ffffff"/>
  </symbol>
  <symbol id="n" overflow="visible" fill="#ffffff">
   <path d="m9.4375-4.9531v4.9531h-2.625v-3.7969c0-0.69531-0.015625-1.1797-0.046875-1.4531-0.03125-0.26953-0.085937-0.46875-0.15625-0.59375-0.10547-0.16406-0.24609-0.29688-0.42188-0.39062-0.16797-0.09375-0.36719-0.14062-0.59375-0.14062-0.54297 0-0.96875 0.21094-1.2812 0.625-0.30469 0.41797-0.45312 1-0.45312 1.75v4h-2.6094v-8.1406h2.6094v1.1875c0.38281-0.46875 0.79688-0.81641 1.2344-1.0469 0.44531-0.22656 0.9375-0.34375 1.4688-0.34375 0.9375 0 1.6484 0.29297 2.1406 0.875 0.48828 0.57422 0.73438 1.4141 0.73438 2.5156z" fill="#ffffff"/>
  </symbol>
  <symbol id="m" overflow="visible" fill="#ffffff">
   <path d="m1.3594-10.859h4.6562c1.375 0 2.4297 0.30859 3.1719 0.92188 0.73828 0.61719 1.1094 1.4922 1.1094 2.625 0 1.1367-0.37109 2.0117-1.1094 2.625-0.74219 0.61719-1.7969 0.92188-3.1719 0.92188h-1.8438v3.7656h-2.8125zm2.8125 2.0312v3.0312h1.5469c0.53906 0 0.95703-0.12891 1.25-0.39062 0.30078-0.26953 0.45312-0.64453 0.45312-1.125 0-0.48828-0.15234-0.86328-0.45312-1.125-0.29297-0.25781-0.71094-0.39062-1.25-0.39062z" fill="#ffffff"/>
  </symbol>
  <symbol id="l" overflow="visible" fill="#ffffff">
   <path d="m1.25-8.1406h2.6094v8c0 1.082-0.26562 1.9102-0.79688 2.4844-0.52344 0.58203-1.2773 0.875-2.2656 0.875h-1.2969v-1.7188h0.45312c0.5 0 0.83594-0.10938 1.0156-0.32812 0.1875-0.21875 0.28125-0.65625 0.28125-1.3125zm0-3.1719h2.6094v2.125h-2.6094z" fill="#ffffff"/>
  </symbol>
  <symbol id="k" overflow="visible" fill="#ffffff">
   <path d="m7.8281-7.8906v2.125c-0.35547-0.23828-0.71094-0.41406-1.0625-0.53125-0.35547-0.125-0.72656-0.1875-1.1094-0.1875-0.73047 0-1.2969 0.21484-1.7031 0.64062-0.39844 0.42969-0.59375 1.0234-0.59375 1.7812 0 0.76172 0.19531 1.3555 0.59375 1.7812 0.40625 0.41797 0.97266 0.625 1.7031 0.625 0.40625 0 0.78906-0.054688 1.1562-0.17188 0.36328-0.125 0.70312-0.30469 1.0156-0.54688v2.1406c-0.40625 0.14844-0.82031 0.25391-1.2344 0.32812-0.41797 0.070312-0.83984 0.10938-1.2656 0.10938-1.4688 0-2.6211-0.375-3.4531-1.125-0.82422-0.75-1.2344-1.7969-1.2344-3.1406s0.41016-2.3906 1.2344-3.1406c0.83203-0.75781 1.9844-1.1406 3.4531-1.1406 0.42578 0 0.84766 0.042969 1.2656 0.125 0.41406 0.074219 0.82812 0.18359 1.2344 0.32812z" fill="#ffffff"/>
  </symbol>
 </defs>
 <g>
  <path d="m354.47 332.13v137.02c0 5.957-2.9805 11.914-5.957 14.895l-119.15 68.512c-2.9805 2.9805-8.9375 2.9805-14.895 0l-119.15-68.512c-5.957-2.9805-8.9375-5.957-8.9375-11.914v-137.02c0-5.957 2.9805-8.9375 8.9375-11.914l116.17-71.488c5.957-2.9805 11.914-2.9805 14.895 0l119.15 68.512c5.957 2.9805 8.9375 5.957 8.9375 11.914zm-122.13 65.531 101.28 59.574v-122.13l-104.25-56.598 2.9805 119.15zm89.363 77.445-101.28-59.574-98.297 59.574 98.297 56.598zm-214.47-14.895 104.25-62.555-2.9805-119.15-101.28 59.574v122.13z" fill-rule="evenodd" fill="#ffffff"/>
  <path d="m280.62 402.29c-4.6328-11.09-0.97656-20.34 8.1602-20.656 9.1367-0.31641 20.297 8.418 24.93 19.512 4.6289 11.09 0.97656 20.336-8.1641 20.652-9.1367 0.31641-20.297-8.418-24.926-19.508" fill-rule="evenodd" fill="#ffffff"/>
  <path d="m245.49 325.78c-4.1641-10.906-0.43359-19.961 8.3281-20.223 8.7617-0.25781 19.242 8.3711 23.402 19.277 4.1641 10.91 0.4375 19.961-8.3242 20.223-8.7617 0.26172-19.242-8.3711-23.406-19.277" fill-rule="evenodd" fill="#ffffff"/>
  <path d="m239.09 447c-3.3047 6.7695-14.137 11.223-24.195 9.9492-10.062-1.2734-15.539-7.7969-12.238-14.566 3.3047-6.7695 14.137-11.223 24.195-9.9492 10.062 1.2734 15.539 7.7969 12.238 14.566" fill-rule="evenodd" fill="#ffffff"/>
  <path d="m188.16 478.02c-3.3047 6.7695-14.137 11.227-24.195 9.9492-10.062-1.2734-15.539-7.793-12.238-14.562 3.3008-6.7695 14.137-11.227 24.195-9.9492 10.059 1.2734 15.539 7.793 12.238 14.562" fill-rule="evenodd" fill="#ffffff"/>
  <path d="m288.81 475.52c-3.3047 6.7695-14.137 11.227-24.195 9.9492-10.062-1.2734-15.539-7.793-12.238-14.562 3.3047-6.7695 14.137-11.227 24.195-9.9492 10.062 1.2734 15.539 7.793 12.238 14.562" fill-rule="evenodd" fill="#ffffff"/>
  <path d="m237.88 506.55c-3.3047 6.7695-14.137 11.227-24.195 9.9531-10.062-1.2773-15.539-7.7969-12.238-14.566 3.3008-6.7695 14.137-11.223 24.195-9.9492s15.539 7.793 12.238 14.562" fill-rule="evenodd" fill="#ffffff"/>
  <path d="m139.31 386.71c3.7227 11.117 14.012 13.574 22.98 5.4883 8.9727-8.0859 13.227-23.652 9.5078-34.77-3.7227-11.113-14.012-13.57-22.98-5.4844-8.9727 8.0859-13.23 23.652-9.5078 34.766" fill-rule="evenodd" fill="#ffffff"/>
  <path d="m23.828 326.17c2.9805-32.766 20.852-56.598 47.66-74.469l8.9375 11.914c-23.828 14.895-38.723 35.746-41.703 62.555z" fill="#ffffff"/>
  <path d="m0 311.28c2.9805-32.766 20.852-59.574 47.66-74.469l5.957 8.9375c-23.828 14.895-38.723 35.746-38.723 65.531z" fill="#ffffff"/>
  <path d="m586.81 257.66-128.09 47.66c-2.9805 2.9805-8.9375 2.9805-14.895 0l-104.25-86.383c-5.957-5.957-5.957-11.914-5.957-14.895l23.828-137.02c0-2.9805 2.9805-8.9375 8.9375-11.914l128.09-47.66c5.957 0 8.9375 0 14.895 2.9805l104.25 86.383c5.957 5.957 5.957 8.9375 5.957 14.895l-20.852 134.04c-2.9805 5.957-5.957 11.914-11.914 11.914zm-104.25-92.34-17.871 116.17 113.19-41.703 17.871-116.17zm-38.723 113.19 20.852-116.17-92.34-71.488-17.871 113.19 89.363 74.469zm-59.574-208.51 92.34 77.445 113.19-41.703-92.34-77.445z" fill-rule="evenodd" fill="#ffffff"/>
  <path d="m488.88 233.02c7.3164-6.7422 15.543-6.5156 18.371 0.50391 2.832 7.0156-0.80078 18.172-8.1172 24.91-7.3164 6.7383-15.543 6.5117-18.375-0.50391-2.832-7.0195 0.80469-18.172 8.1211-24.91" fill-rule="evenodd" fill="#ffffff"/>
  <path d="m561.86 149.04c7.3086-6.3242 15.406-5.9883 18.086 0.75391 2.6836 6.7422-1.0664 17.336-8.3711 23.66-7.3086 6.3242-15.402 5.9844-18.086-0.75781-2.6836-6.7383 1.0664-17.332 8.3711-23.656" fill-rule="evenodd" fill="#ffffff"/>
  <path d="m441.24 190.16c-7.4922-0.78906-15.383-9.4492-17.625-19.34-2.2383-9.8867 2.0156-17.266 9.5078-16.477 7.4883 0.78906 15.379 9.4453 17.621 19.336 2.2422 9.8906-2.0156 17.27-9.5039 16.48" fill-rule="evenodd" fill="#ffffff"/>
  <path d="m394.66 152.91c-7.4883-0.78906-15.379-9.4492-17.621-19.34-2.2422-9.8867 2.0156-17.266 9.5039-16.477 7.4922 0.78906 15.383 9.4453 17.625 19.336 2.2383 9.8906-2.0156 17.27-9.5078 16.48" fill-rule="evenodd" fill="#ffffff"/>
  <path d="m431.43 246.64c-7.4922-0.78906-15.383-9.4453-17.625-19.336-2.2383-9.8906 2.0156-17.27 9.5039-16.48 7.4922 0.78906 15.383 9.4492 17.625 19.34 2.2422 9.8867-2.0156 17.266-9.5039 16.477" fill-rule="evenodd" fill="#ffffff"/>
  <path d="m384.86 209.38c-7.4922-0.78906-15.379-9.4453-17.621-19.336s2.0117-17.27 9.5039-16.48c7.4922 0.78906 15.379 9.4492 17.621 19.336 2.2422 9.8906-2.0117 17.27-9.5039 16.48" fill-rule="evenodd" fill="#ffffff"/>
  <path d="m527.45 190.21c7.3047-6.3281 15.402-5.9883 18.086 0.75391 2.6797 6.7422-1.0664 17.336-8.375 23.66-7.3047 6.3242-15.402 5.9844-18.086-0.75781-2.6797-6.7422 1.0664-17.332 8.375-23.656" fill-rule="evenodd" fill="#ffffff"/>
  <path d="m410.52 67.961c-6.7578 4.9414-5.8672 12.738 1.9883 17.41 7.8516 4.6758 19.691 4.457 26.449-0.48438 6.7539-4.9414 5.8633-12.738-1.9883-17.41-7.8555-4.6719-19.695-4.457-26.449 0.48438" fill-rule="evenodd" fill="#ffffff"/>
  <path d="m469.82 113.14c-6.7578 4.9414-5.8672 12.734 1.9883 17.41 7.8516 4.6719 19.691 4.4531 26.449-0.48828 6.7539-4.9414 5.8633-12.734-1.9883-17.41-7.8555-4.6719-19.695-4.4531-26.449 0.48828" fill-rule="evenodd" fill="#ffffff"/>
  <path d="m535.57 89.781c-6.7539 4.9414-5.8633 12.734 1.9883 17.406 7.8516 4.6758 19.695 4.457 26.449-0.48438s5.8672-12.734-1.9883-17.41c-7.8516-4.6719-19.695-4.457-26.449 0.48828" fill-rule="evenodd" fill="#ffffff"/>
  <path d="m479.04 42.223c-6.7578 4.6016-5.8672 11.859 1.9883 16.211 7.8516 4.3516 19.691 4.1484 26.449-0.45312 6.7539-4.6016 5.8633-11.859-1.9883-16.211-7.8555-4.3516-19.695-4.1484-26.449 0.45312" fill-rule="evenodd" fill="#ffffff"/>
  <path d="m475.34 75.031c-6.7539 4.9414-5.8633 12.734 1.9883 17.41 7.8516 4.6719 19.695 4.4531 26.449-0.48828s5.8633-12.734-1.9883-17.41c-7.8516-4.6719-19.695-4.4531-26.449 0.48828" fill-rule="evenodd" fill="#ffffff"/>
  <path d="m640.43 58.086c23.828 20.852 32.766 50.637 29.789 83.402l-11.914-2.9805c2.9805-26.809-5.957-50.637-26.809-68.512l8.9375-11.914z" fill="#ffffff"/>
  <path d="m667.23 49.148c23.828 20.852 35.746 47.66 32.766 80.426h-14.895c2.9805-26.809-5.957-53.617-26.809-71.488z" fill="#ffffff"/>
  <use y="600.210938" xlink:href="#t" fill="#ffffff"/>
  <use x="10.929688" y="600.210938" xlink:href="#b" fill="#ffffff"/>
  <use x="18.273438" y="600.210938" xlink:href="#a" fill="#ffffff"/>
  <use x="28.375" y="600.210938" xlink:href="#e" fill="#ffffff"/>
  <use x="38.425781" y="600.210938" xlink:href="#d" fill="#ffffff"/>
  <use x="45.546875" y="600.210938" xlink:href="#a" fill="#ffffff"/>
  <use x="55.648438" y="600.210938" xlink:href="#j" fill="#ffffff"/>
  <use x="71.492188" y="600.210938" xlink:href="#i" fill="#ffffff"/>
  <use x="82.15625" y="600.210938" xlink:href="#h" fill="#ffffff"/>
  <use x="97.046875" y="600.210938" xlink:href="#g" fill="#ffffff"/>
  <use x="106.953125" y="600.210938" xlink:href="#e" fill="#ffffff"/>
  <use x="117.003906" y="600.210938" xlink:href="#b" fill="#ffffff"/>
  <use x="124.347656" y="600.210938" xlink:href="#a" fill="#ffffff"/>
  <use x="134.449219" y="600.210938" xlink:href="#a" fill="#ffffff"/>
  <use x="144.550781" y="600.210938" xlink:href="#f" fill="#ffffff"/>
  <use x="160.070312" y="600.210938" xlink:href="#c" fill="#ffffff"/>
  <use x="170.300781" y="600.210938" xlink:href="#s" fill="#ffffff"/>
  <use y="615.105469" xlink:href="#r" fill="#ffffff"/>
  <use x="6.480469" y="615.105469" xlink:href="#b" fill="#ffffff"/>
  <use x="13.824219" y="615.105469" xlink:href="#c" fill="#ffffff"/>
  <use x="24.058594" y="615.105469" xlink:href="#f" fill="#ffffff"/>
  <use x="44.761719" y="615.105469" xlink:href="#d" fill="#ffffff"/>
  <use x="51.878906" y="615.105469" xlink:href="#q" fill="#ffffff"/>
  <use x="62.484375" y="615.105469" xlink:href="#a" fill="#ffffff"/>
  <use x="77.769531" y="615.105469" xlink:href="#p" fill="#ffffff"/>
  <use x="90.234375" y="615.105469" xlink:href="#c" fill="#ffffff"/>
  <use x="100.464844" y="615.105469" xlink:href="#o" fill="#ffffff"/>
  <use x="111.070312" y="615.105469" xlink:href="#n" fill="#ffffff"/>
  <use x="126.859375" y="615.105469" xlink:href="#m" fill="#ffffff"/>
  <use x="137.773438" y="615.105469" xlink:href="#b" fill="#ffffff"/>
  <use x="145.117188" y="615.105469" xlink:href="#c" fill="#ffffff"/>
  <use x="155.351562" y="615.105469" xlink:href="#l" fill="#ffffff"/>
  <use x="160.457031" y="615.105469" xlink:href="#a" fill="#ffffff"/>
  <use x="170.554688" y="615.105469" xlink:href="#k" fill="#ffffff"/>
  <use x="179.386719" y="615.105469" xlink:href="#d" fill="#ffffff"/>
 </g>
</svg>